<svg width="800" height="600" xmlns="http://www.w3.org/2000/svg">

 <g>
  <title>Layer 1</title>
  <path d="m216.11111,7.77778c-1.11111,0 -0.83618,1.12247 -1.11111,4.44444c-0.55745,6.7356 -1.11111,12.22222 -1.11111,17.77778c0,5.55556 0,8.88889 0,13.33333c0,5.55556 0.55284,9.91755 1.11111,15.55556c0.43794,4.42281 0.57718,7.82082 1.11111,11.11111c0.56282,3.46828 1.81494,5.58054 2.22221,8.88889c0.55975,4.54691 1.23985,7.73759 2.22223,11.11111c1.28085,4.39853 1.71165,6.72611 2.22221,8.88889c0.57083,2.41806 1.45639,4.53362 2.22223,7.77778c0.57083,2.41806 2.22223,5.55556 2.22223,6.66667c0,2.22222 1.1111,3.33333 1.1111,4.44444c0,2.22222 0.26071,4.6136 1.11111,6.66666c0.60133,1.45174 1.37183,2.39137 2.22223,4.44444c0.60132,1.45174 1.1111,2.22223 2.22221,3.33334c2.22223,2.22221 3.33334,3.33333 4.44444,5.55554c1.11111,2.22223 2.22223,4.44446 4.44444,6.66667c2.22223,2.22223 3.44824,4.34036 4.44446,5.55556c2.53986,3.09813 4.44443,4.44444 6.66666,6.66667c2.22223,2.22223 5.55557,4.44444 8.88889,6.66666c3.33334,2.22223 7.91891,4.08736 11.11111,5.55556c5.88611,2.70723 9.71896,6.24113 14.44446,7.77779c6.42734,2.09006 13.22705,4.73112 18.88889,6.66666c7.65411,2.61661 12.19705,4.55049 16.66666,5.55556c5.52756,1.24297 10,3.33333 14.44446,4.44444c4.44443,1.1111 7.70459,3.49367 10,4.44444c3.24615,1.3446 6.81442,1.7439 11.11111,3.33334c4.66037,1.72398 9.60132,6.16708 14.44443,8.88889c5.21622,2.93149 11.34631,5.2379 14.44446,7.77777c3.64557,2.98865 6.66666,5.55556 8.88889,7.77779c2.22223,2.22221 3.16968,4.63676 4.44443,5.55556c2.01556,1.45273 1.71167,2.28166 2.22223,4.44444c0.57083,2.41805 1.11111,4.44444 1.11111,6.66667c0,4.44444 0,8.88889 0,12.22221c0,5.55556 0,10.00002 0,15.55556c0,4.44446 0,7.77777 0,10c0,3.33334 -1.11111,5.55554 -2.22223,7.77777c-2.22223,4.44446 -4.35278,7.8407 -6.66666,11.11111c-3.20874,4.53525 -4.77444,8.45981 -7.77777,11.11111c-3.72519,3.28854 -6.66669,5.55554 -11.11111,8.88889c-4.44446,3.33334 -7.77777,5.55557 -11.11111,7.77777c-3.33334,2.22223 -6.535,4.65588 -10,6.66669c-4.29779,2.49408 -8.88889,4.44443 -12.22223,6.66666c-3.33334,2.22223 -7.44742,5.04596 -11.11111,6.66666c-4.18958,1.85333 -7.87491,1.99329 -13.33331,4.44446c-4.53296,2.03561 -8.96225,4.3085 -11.11111,5.55554c-3.46497,2.01083 -6.66669,3.33334 -8.88889,4.44446c-2.22223,1.11111 -4.53162,0.87759 -7.7778,2.22223c-2.29538,0.95078 -4.78888,1.48608 -7.77777,3.33331c-2.67334,1.65222 -5.76221,4.10284 -7.77777,5.55557c-3.82422,2.75635 -5.55557,5.55554 -7.77777,7.77777c-3.33334,3.33334 -5.94025,6.33939 -7.7778,8.88889c-2.90543,4.0311 -4.21094,6.75381 -5.55554,10c-1.90158,4.59082 -4.44444,7.77777 -5.55556,12.22223c-1.11111,4.44443 -3.75417,8.7023 -5.55556,13.33334c-2.93245,7.53876 -4.10138,13.41309 -5.55556,18.88889c-1.80368,6.79187 -3.88617,11.02866 -4.44444,16.66666c-0.43794,4.42282 -0.57718,7.8208 -1.11111,11.11111c-0.56282,3.46829 -0.60054,4.50388 -1.1111,6.66666c-0.57083,2.41806 -0.70383,3.35831 -1.11111,6.66669c-0.55975,4.54688 -0.70384,7.80273 -1.11111,11.11108c-0.55975,4.54691 -1.65939,7.64285 -2.22221,11.11111c-0.71191,4.38705 -1.11111,6.66666 -1.11111,11.11111c0,3.33331 -1.11111,6.66669 -1.11111,10c0,3.33331 0,6.66669 0,8.88892c0,3.33331 0,6.66663 0,7.77777c0,2.22223 0,4.44446 0,6.66663c0,2.22223 0,4.44446 0,7.77783c0,3.33331 0,5.55554 0,8.88885c0,3.33331 0,4.44446 0,7.77777c0,1.11115 0,2.22223 0,4.44446c0,2.22223 0,3.33331 0,5.55554c0,2.22223 0,5.55554 0,6.66669c0,3.33331 0,4.44446 0,6.66669c0,1.11108 0,2.22217 0,3.33331c0,1.11108 0,2.22223 0,3.33331l0,2.22223l0,1.11115" id="svg_1" stroke="#000" fill="none"/>
 </g>
</svg>